<?xml version="1.0" encoding="utf-8"?>
<!-- Generator: Adobe Illustrator 18.0.0, SVG Export Plug-In . SVG Version: 6.00 Build 0)  -->
<!DOCTYPE svg PUBLIC "-//W3C//DTD SVG 1.1//EN" "http://www.w3.org/Graphics/SVG/1.1/DTD/svg11.dtd">
<svg version="1.1" id="Layer_1" xmlns="http://www.w3.org/2000/svg" xmlns:xlink="http://www.w3.org/1999/xlink" x="0px" y="0px"
	 viewBox="0 0 256 256" enable-background="new 0 0 256 256" xml:space="preserve">
<g>
	<circle fill="#FFD678" cx="128" cy="128" r="127"/>
	<path fill="#8D231C" d="M153.4,99.3c6.5,1.5,14.3,3.1,19.3-1.4c2.4-2.2,4-5.7,7.2-6.2c14.3,4.7,28.7,9.5,41.7,17
		c3.1,1.8,6.5,4.5,6.3,8c-0.1,1.8-1.2,3.4-2.4,4.7c-4.2,4.8-10.4,7.4-16.7,8.5c-6.3,1.1-12.7,0.7-19.1,0.3
		c-28.4-1.9-56.9-5.2-85.4-4.4c-13.6,0.4-27.5,1.7-40.8-1.5c-13.3-3.2-40.7-17.7-30.9-26.1c0.5-0.4,1-0.5,1.2-1.2
		c0.3-1.2,1.6-1.8,2.7-2.2c6.1-2.1,12.7-2.2,19.2-2.3C88.3,92.2,121.5,91.8,153.4,99.3z"/>
	<path fill="#201F24" d="M89.2,91.9c-2.5,0.6-5,1.4-6.8,3.1c-3,2.8-3.8,7.2-3.7,11.3c0.1,4.1,0.8,8.2,0.2,12.2
		c-0.8,4.9-1.8,4.6-1.3,9.5c1.5,12.6-0.6,29.7-3.7,41.8c-2.1,8.1-8.2,14.6-10.9,22.4c8-8.7,12.8-20,15.2-31.5
		c2.4-11.6,2.4-23.5,2-35.3c2.5,12.2,5.1,24.6,3.7,36.9c-0.5,4.3-1.4,8.6-1.9,12.9c-0.8,7.8,0.1,15.7,1,23.6
		c0.7,6.2,1.5,12.6,4.6,18.1c1.8,3.3,4.5,6.1,5.9,9.6c-8.1-11.5-9.9-26.2-9.6-40.2s4-26.3,2.7-40.3c0.5,9.3,1.5,16.5,3.7,25.5
		s3.8,18.4,2,27.5c-1.8,9.1-7.8,17.8-16.6,20.6c9.8-3.6,16.4-13.2,18.9-23.4s1.5-20.8,0.3-31.1c-2.5,15.1,11.2,28.5,11.7,43.7
		c0.1,3.7-0.5,7.4,0.6,11c0.8,2.7,2.6,4.9,4.3,7.1c3.9,4.9,8,10.1,13.7,12.6c8.1,3.6,18.1,1,24.7-4.9s10.3-14.5,12-23.3
		c1.6-8.7,1.4-17.7,1.3-26.6c-0.1-23.3,1.2-47.8-9.9-68.3c-4.2-7.7-10.2-14.7-18.1-18.6c-5.9-2.9-12.4-4-18.9-5.1
		C107.4,91.4,98.1,89.9,89.2,91.9z"/>
	<path fill="#EFA287" d="M227.4,207.1c-2.4-4.7-6.4-8.6-10.8-11.7c-5.4-3.8-11.5-6.7-16.9-10.4c-10.1-7-17.8-16.9-25.3-26.7
		c-5.5-7.2-11-14.4-15.8-22.1c-0.4-0.6-0.8-1.2-1.5-1.3c-0.6-0.1-1.1,0.4-1.6,0.8c-2.6,2.5-4.6,5.7-6.9,8.5
		c-4.8,5.9-11.2,10.5-18.4,13.1c4.9,8.2,9.2,16.8,12.8,25.6c-7.5,1.2-15.5,2.7-20.7,8.2c-1.7,1.8-3.1,4-4.1,6.4
		c-4.7,10.2-4.2,22.1-2.4,33.2c1.3,8,3.3,16,4.4,24.1c2.6,0.2,5.2,0.3,7.8,0.3C168.2,255,204.1,236.3,227.4,207.1z"/>
	<path fill="#BF4028" d="M186.4,46.3c-1.5-2.6-4.3-4.1-7-5.4c-17.3-8.5-36.7-12.5-55.9-11.6c-7.2,0.3-14.9,1.6-20.2,6.5
		c-3.8,3.5-5.9,8.5-7.7,13.3c-3.7,10.2-6.3,20.8-7.9,31.6c-0.1,0.8-0.2,1.8,0.2,2.5c0.8,1.5,2.9,1.5,4.5,1.3
		c29.1-3.6,57.3,5.7,86.5,7.3c1.4,0.1,3.1,0.1,4.1-1c0.6-0.6,0.8-1.4,1-2.1c2.3-8.1,4.5-26.8,4.1-35.3
		C188,50.9,187.7,48.4,186.4,46.3z"/>
	<path fill="#FBBEA0" d="M85.5,101.3c0.7,3.5,1.4,7,2.2,10.5c0.5,2.4,1,4.8,1.8,7c1.8,4.7,5.1,8.7,7.4,13.2c2.5,5.2,3.6,11.1,6.7,16
		c1.8,2.8,4.3,5.2,6,8.1c2.6,4.6,3.8,11.1,8.8,12.8c3.8,1.3,7.9-0.9,11.3-3.1c10-6.3,20.3-12.9,27.1-22.6c4.5-6.5,6.9-14.7,7.3-22.7
		c0.3-4.8,0-9.8-2-14.3c-3.2-7.3-10.6-12.2-18.3-14.3s-15.9-1.9-23.9-1.7c-2.9,0.1-5.8,0.2-8.7,0.7c-3.3,0.7-6.4,2.1-9.6,3.4
		C96.1,96.9,91.1,98.8,85.5,101.3z"/>
	<path fill="#201F24" d="M198.4,219.1c7.5-2.9,16.9-2,22.5-7.9c3.8-4.1,4.4-10.3,3-15.7c-1.4-5.4-4.5-10.1-7.4-14.9
		c-2.9-4.7-5.8-9.7-6.7-15.1c-0.9-5.7,0.4-11.7-0.8-17.4c-1.3-6-5.2-11-7.7-16.6c-4.6-10.1-5.2-22.7-13.4-30.2
		c-6.2-5.7-15.1-6.9-23.5-7.8c-9.3-1.1-18.6-2.1-28-3.2c0.4,7.9,2.9,15.7,7.2,22.4c2.3,3.6,5,6.8,7.4,10.3c2.6,3.8,4.7,7.8,6.3,12.1
		c1.5,3.9,2.6,8.2,1.9,12.4c-0.7,4.2-3.5,8.2-7.6,9.3c-4.1,1.1-9.1-1.8-9.2-6.1c-0.5,4.1,0.7,8.4,3.6,11.3s7.5,4.1,11.3,2.6
		c3.8-1.6,6.3-6,5.1-10c1,6.2,4.1,11.8,6.2,17.6c2.1,5.9,3.3,12.6,0.7,18.2c-2.1,4.4-6.3,7.5-10.9,9s-9.6,1.4-14.4,0.7
		c-1.9-0.3-3.9-0.7-5.8-0.2c-2.4,0.6-4.4,2.7-4.8,5.2c-0.1,0.5-0.1,1.1,0.3,1.4c0.3,0.4,0.9,0.4,1.3,0.5c2.6,0.7,3.7,3.9,5.9,5.5
		c2.5,1.8,5.9,1.1,9,1.2c11.6,0.6,20.4,13.7,32,12.5C187.9,225.8,192.8,221.3,198.4,219.1z"/>
	<path fill="#E65336" d="M69.3,98.8c5.5,2.6,10.5,6.3,16.1,8.9s12.2,3.8,17.7,1.3c2.9-1.3,5.3-3.6,8-5.4c12-8,28.1-5.3,41.6-0.3
		c13.5,5.1,26.6,12.3,41,12.8c11.6,0.3,23.4-3.8,34.5-0.6c-2.8-13.7-16.9-21.5-29.6-27.2c-23.4-10.6-47.9-20.3-73.5-20.5
		c-29.8-0.2-58,12.6-85,25.1c-2.9,1.4-6,2.9-7.7,5.6C44.1,93.3,57.9,93.5,69.3,98.8z"/>
	<path fill="#EDF0F2" d="M104.9,119.3c0.7,6.5,10.6,13.6,18.9,13.3c9.7-0.3,18-10.4,17.3-19.2c-0.7-8.9-10.2-10.9-19.9-8.3
		C112.9,107.3,104.2,112.8,104.9,119.3z"/>
	<path fill="#27A4D5" d="M106.9,119.3c0.6,5.7,9.3,11.7,16.5,11.4c8.2-0.3,15-8.9,14.4-16.3c-0.6-7.4-8.4-9.2-16.6-7.2
		C113.9,108.9,106.3,113.6,106.9,119.3z"/>
	<path fill="#EDF0F2" d="M101.9,119.8c0.7,6.3-5.8,13.6-10.9,13.7c-4.5,0.1-8.6-5.5-9.3-10.5c-0.6-5,2.4-8.3,6.8-9.5
		C93.6,112.3,101.2,113.5,101.9,119.8z"/>
	<path fill="#27A4D5" d="M100.1,120.4c0.6,5.3-4.8,11.5-9.1,11.7c-3.9,0.2-7.5-4.6-8-9c-0.6-4.4,2.1-7.2,6-8.1
		C93.2,113.9,99.5,115,100.1,120.4z"/>
	<path fill="#EDF0F2" d="M101.4,117.7c0.4,0.1,0.7,0,1.1,0c1.3-0.1,2.5-0.7,3.5-1.7c-0.5,2.3,0,5,1,7.1c-0.5-0.8-1-1.5-1.8-1.8
		c-0.9-0.4-1.9-0.1-2.7,0.4c-0.8,0.5-1.4,1.3-1.9,2.1c1-2.2,0.7-5.1-0.8-7C100.2,117.3,100.8,117.6,101.4,117.7z"/>
</g>
</svg>
