<?xml version="1.0" encoding="utf-8"?>
<!-- Generator: Adobe Illustrator 18.0.0, SVG Export Plug-In . SVG Version: 6.00 Build 0)  -->
<!DOCTYPE svg PUBLIC "-//W3C//DTD SVG 1.1//EN" "http://www.w3.org/Graphics/SVG/1.1/DTD/svg11.dtd">
<svg version="1.1" id="Layer_1" xmlns="http://www.w3.org/2000/svg" xmlns:xlink="http://www.w3.org/1999/xlink" x="0px" y="0px"
	 viewBox="0 0 256 256" enable-background="new 0 0 256 256" xml:space="preserve">
<g>
	<circle fill="#EFC848" cx="128" cy="128" r="127"/>
	<g>
		<rect x="87.1" y="132.1" fill="#7E964B" width="81.9" height="8.6"/>
		<rect x="71.6" y="139.5" fill="#5F7935" width="112.7" height="26.5"/>
		<g>
			<g>
				<polygon fill="#09080A" points="68.9,157.8 55.4,174.1 58.1,191.8 70.6,197.4 95.4,166.9 				"/>
				<polygon fill="#17161B" points="103,169.5 95.4,166.9 70.6,197.4 77.7,200.6 				"/>
				<path fill="#21221A" d="M128.8,171.7v-7.3H66.2c0,0,1.1,7.6,4.9,9.2s8.7-1.3,8.7-1.3L128.8,171.7z"/>
				<g>
					<path fill="#858991" d="M77.7,200.6c-9.9,0-19.9,0-29.8,0c-9.5-11.8-12.2-27-7.4-38.2c10.4,0,20.8,0,31.1,0
						C66.3,173.6,68.7,188.9,77.7,200.6z"/>
					<g>
						<g>
							<path fill="#353A43" d="M68.1,171.1c-3.8,0-7.7,0-11.5,0c-0.3,0-0.6,0.3-0.6,0.6c-0.1,1.3-0.2,2.6-0.1,4
								c0,0.4,0.3,0.6,0.5,0.6c3.8,0,7.6,0,11.5,0c0.3,0,0.5-0.3,0.5-0.6c0-1.3,0.1-2.7,0.2-4C68.6,171.4,68.4,171.1,68.1,171.1z"/>
							<path fill="#353A43" d="M67.9,177.5c-3.8,0-7.6,0-11.4,0c-0.3,0-0.5,0.3-0.5,0.6c0.1,1.3,0.3,2.7,0.6,4
								c0.1,0.4,0.4,0.6,0.6,0.6c3.8,0,7.6,0,11.4,0c0.3,0,0.5-0.3,0.4-0.6c-0.2-1.3-0.4-2.7-0.5-4
								C68.4,177.8,68.2,177.5,67.9,177.5z"/>
							<path fill="#353A43" d="M68.8,183.9c-3.8,0-7.6,0-11.4,0c-0.3,0-0.4,0.3-0.4,0.6c0.3,1.3,0.7,2.6,1.2,3.9
								c0.1,0.3,0.5,0.6,0.7,0.6c3.8,0,7.5,0,11.3,0c0.3,0,0.4-0.3,0.3-0.6c-0.5-1.3-0.8-2.6-1.2-3.9
								C69.4,184.2,69.1,183.9,68.8,183.9z"/>
							<path fill="#353A43" d="M70.8,190.2c-3.8,0-7.5,0-11.3,0c-0.3,0-0.4,0.3-0.3,0.6c0.5,1.3,1.1,2.5,1.8,3.7
								c0.2,0.3,0.6,0.6,0.8,0.6c3.7,0,7.5,0,11.2,0c0.3,0,0.4-0.3,0.2-0.6c-0.7-1.2-1.2-2.5-1.8-3.7
								C71.4,190.5,71.1,190.2,70.8,190.2z"/>
							<path fill="#353A43" d="M73.7,196.2c-3.7,0-7.5,0-11.2,0c-0.3,0-0.4,0.3-0.2,0.6c0.7,1.2,1.5,2.3,2.4,3.4
								c0.2,0.3,0.6,0.5,0.9,0.5c3.7,0,7.4,0,11.2,0c0.3,0,0.3-0.2,0.1-0.5c-0.8-1.1-1.6-2.3-2.3-3.4
								C74.4,196.4,74,196.2,73.7,196.2z"/>
							<g>
								<path fill="#353A43" d="M69.6,164.9c-3.9,0-7.7,0-11.6,0c-0.3,0-0.6,0.3-0.7,0.6c-0.4,1.2-0.7,2.5-0.9,3.8
									c-0.1,0.3,0.1,0.6,0.4,0.6c3.8,0,7.7,0,11.5,0c0.3,0,0.6-0.3,0.6-0.6c0.2-1.3,0.6-2.6,1-3.8C70,165.2,69.9,164.9,69.6,164.9
									z"/>
								<path fill="#353A43" d="M52.1,164.9c-3.9,0-7.7,0-11.6,0c-0.3,0-0.6,0.3-0.7,0.6c-0.4,1.2-0.6,2.5-0.9,3.8
									c-0.1,0.3,0.1,0.6,0.4,0.6c3.8,0,7.7,0,11.5,0c0.3,0,0.6-0.3,0.6-0.6c0.2-1.3,0.5-2.6,0.9-3.8
									C52.5,165.2,52.4,164.9,52.1,164.9z"/>
							</g>
						</g>
					</g>
					<path fill="#353A43" d="M50.7,171.1c-3.8,0-7.7,0-11.5,0c-0.3,0-0.6,0.3-0.6,0.6c-0.1,1.3-0.1,2.6-0.1,4c0,0.4,0.3,0.6,0.6,0.6
						c3.8,0,7.6,0,11.5,0c0.3,0,0.5-0.3,0.5-0.6c0-1.3,0-2.7,0.1-4C51.2,171.4,51,171.1,50.7,171.1z"/>
					<path fill="#353A43" d="M50.6,177.5c-3.8,0-7.6,0-11.4,0c-0.3,0-0.5,0.3-0.5,0.6c0.1,1.3,0.4,2.7,0.6,4
						c0.1,0.4,0.4,0.6,0.7,0.6c3.8,0,7.6,0,11.4,0c0.3,0,0.5-0.3,0.4-0.6c-0.3-1.3-0.5-2.7-0.6-4C51.2,177.8,50.9,177.5,50.6,177.5z
						"/>
					<path fill="#353A43" d="M51.7,183.9c-3.8,0-7.6,0-11.4,0c-0.3,0-0.4,0.3-0.3,0.6c0.4,1.3,0.8,2.6,1.3,3.9
						c0.1,0.3,0.5,0.6,0.8,0.6c3.8,0,7.5,0,11.3,0c0.3,0,0.4-0.3,0.3-0.6c-0.5-1.3-0.9-2.6-1.2-3.9C52.3,184.2,52,183.9,51.7,183.9z
						"/>
					<path fill="#353A43" d="M53.8,190.2c-3.8,0-7.5,0-11.3,0c-0.3,0-0.4,0.3-0.2,0.6c0.6,1.3,1.2,2.5,1.9,3.7
						c0.2,0.3,0.6,0.6,0.8,0.6c3.7,0,7.5,0,11.2,0c0.3,0,0.4-0.3,0.2-0.6c-0.7-1.2-1.3-2.5-1.8-3.7
						C54.4,190.5,54.1,190.2,53.8,190.2z"/>
					<path fill="#353A43" d="M56.8,196.2c-3.7,0-7.5,0-11.2,0c-0.3,0-0.4,0.3-0.1,0.6c0.8,1.2,1.6,2.3,2.4,3.4
						c0.2,0.3,0.6,0.5,0.9,0.5c3.7,0,7.4,0,11.2,0c0.3,0,0.3-0.2,0.1-0.5c-0.9-1.1-1.6-2.3-2.4-3.4
						C57.5,196.4,57.1,196.2,56.8,196.2z"/>
					<path fill="#353A43" d="M57.1,162.4c-0.7,0-1.4,0-2.2,0c-0.5,0-1.2,0.4-1.4,1c-0.9,2.1-1.5,4.4-1.8,6.8c-0.1,0.6,0.3,1,0.8,1
						c0.7,0,1.4,0,2.1,0c0.5,0,1-0.5,1.1-1c0.3-2.4,1-4.6,1.8-6.8C57.9,162.8,57.6,162.4,57.1,162.4z"/>
					<path fill="#353A43" d="M54.7,171.5c-0.7,0-1.4,0-2.1,0c-0.5,0-1,0.5-1,1c-0.2,2.3-0.1,4.7,0.3,7.2c0.1,0.6,0.6,1.1,1.1,1.1
						c0.7,0,1.4,0,2.1,0c0.5,0,0.9-0.5,0.8-1.1c-0.3-2.4-0.4-4.8-0.2-7.2C55.6,172,55.2,171.5,54.7,171.5z"/>
					<path fill="#353A43" d="M55.1,181.2c-0.7,0-1.4,0-2.1,0c-0.5,0-0.9,0.5-0.7,1.1c0.5,2.4,1.2,4.7,2.1,7c0.2,0.6,0.8,1,1.3,1
						c0.7,0,1.4,0,2.1,0c0.5,0,0.7-0.5,0.5-1c-0.9-2.3-1.6-4.7-2.1-7C56.1,181.7,55.6,181.2,55.1,181.2z"/>
					<path fill="#353A43" d="M57.9,190.7c-0.7,0-1.4,0-2.1,0c-0.5,0-0.7,0.5-0.5,1c1,2.2,2.3,4.4,3.7,6.5c0.3,0.5,1,0.9,1.6,0.9
						c0.7,0,1.4,0,2.1,0c0.5,0,0.6-0.4,0.3-0.9c-1.4-2.1-2.6-4.3-3.6-6.5C59,191.2,58.4,190.7,57.9,190.7z"/>
					<path fill="#353A43" d="M64.8,200.7c-0.1-0.1-0.2-0.3-0.3-0.4c-0.4-0.5-1.1-0.9-1.6-0.9c-0.7,0-1.4,0-2.1,0
						c-0.5,0-0.6,0.4-0.3,0.9c0.1,0.1,0.2,0.3,0.3,0.4C62.1,200.7,63.4,200.7,64.8,200.7z"/>
				</g>
				<path fill="#282820" d="M71.1,173.6h57.7v10.8c0,0-16-2.5-19-5.1s-28.3,5.5-28.3,5.5S71.7,183.9,71.1,173.6z"/>
				<polygon fill="#434337" points="128.8,173.6 128.8,171.7 81,171.7 71.1,173.6 				"/>
				<rect x="102.9" y="176.1" fill="#575A49" width="7.3" height="5.5"/>
			</g>
			<g>
				<polygon fill="#09080A" points="187.1,157.8 200.6,174.1 197.9,191.8 185.4,197.4 160.6,166.9 				"/>
				<polygon fill="#17161B" points="153,169.5 160.6,166.9 185.4,197.4 178.3,200.6 				"/>
				<path fill="#21221A" d="M127.2,171.7v-7.3h62.6c0,0-1.1,7.6-4.9,9.2s-8.7-1.3-8.7-1.3L127.2,171.7z"/>
				<g>
					<path fill="#858991" d="M178.3,200.6c9.9,0,19.9,0,29.8,0c9.5-11.8,12.2-27,7.4-38.2c-10.4,0-20.8,0-31.1,0
						C189.7,173.6,187.3,188.9,178.3,200.6z"/>
					<g>
						<g>
							<path fill="#353A43" d="M187.9,171.1c3.8,0,7.7,0,11.5,0c0.3,0,0.6,0.3,0.6,0.6c0.1,1.3,0.2,2.6,0.1,4c0,0.4-0.3,0.6-0.5,0.6
								c-3.8,0-7.6,0-11.5,0c-0.3,0-0.5-0.3-0.5-0.6c0-1.3-0.1-2.7-0.2-4C187.4,171.4,187.6,171.1,187.9,171.1z"/>
							<path fill="#353A43" d="M188.1,177.5c3.8,0,7.6,0,11.4,0c0.3,0,0.5,0.3,0.5,0.6c-0.1,1.3-0.3,2.7-0.6,4
								c-0.1,0.4-0.4,0.6-0.6,0.6c-3.8,0-7.6,0-11.4,0c-0.3,0-0.5-0.3-0.4-0.6c0.2-1.3,0.4-2.7,0.5-4
								C187.6,177.8,187.8,177.5,188.1,177.5z"/>
							<path fill="#353A43" d="M187.2,183.9c3.8,0,7.6,0,11.4,0c0.3,0,0.4,0.3,0.4,0.6c-0.3,1.3-0.7,2.6-1.2,3.9
								c-0.1,0.3-0.5,0.6-0.7,0.6c-3.8,0-7.5,0-11.3,0c-0.3,0-0.4-0.3-0.3-0.6c0.5-1.3,0.8-2.6,1.2-3.9
								C186.6,184.2,186.9,183.9,187.2,183.9z"/>
							<path fill="#353A43" d="M185.2,190.2c3.8,0,7.5,0,11.3,0c0.3,0,0.4,0.3,0.3,0.6c-0.5,1.3-1.1,2.5-1.8,3.7
								c-0.2,0.3-0.6,0.6-0.8,0.6c-3.7,0-7.5,0-11.2,0c-0.3,0-0.4-0.3-0.2-0.6c0.7-1.2,1.2-2.5,1.8-3.7
								C184.6,190.5,184.9,190.2,185.2,190.2z"/>
							<path fill="#353A43" d="M182.3,196.2c3.7,0,7.5,0,11.2,0c0.3,0,0.4,0.3,0.2,0.6c-0.7,1.2-1.5,2.3-2.4,3.4
								c-0.2,0.3-0.6,0.5-0.9,0.5c-3.7,0-7.4,0-11.2,0c-0.3,0-0.3-0.2-0.1-0.5c0.8-1.1,1.6-2.3,2.3-3.4
								C181.6,196.4,182,196.2,182.3,196.2z"/>
							<g>
								<path fill="#353A43" d="M186.4,164.9c3.9,0,7.7,0,11.6,0c0.3,0,0.6,0.3,0.7,0.6c0.4,1.2,0.7,2.5,0.9,3.8
									c0.1,0.3-0.1,0.6-0.4,0.6c-3.8,0-7.7,0-11.5,0c-0.3,0-0.6-0.3-0.6-0.6c-0.2-1.3-0.6-2.6-1-3.8
									C186,165.2,186.1,164.9,186.4,164.9z"/>
								<path fill="#353A43" d="M203.9,164.9c3.9,0,7.7,0,11.6,0c0.3,0,0.6,0.3,0.7,0.6c0.4,1.2,0.6,2.5,0.9,3.8
									c0.1,0.3-0.1,0.6-0.4,0.6c-3.8,0-7.7,0-11.5,0c-0.3,0-0.6-0.3-0.6-0.6c-0.2-1.3-0.5-2.6-0.9-3.8
									C203.5,165.2,203.6,164.9,203.9,164.9z"/>
							</g>
						</g>
					</g>
					<path fill="#353A43" d="M205.3,171.1c3.8,0,7.7,0,11.5,0c0.3,0,0.6,0.3,0.6,0.6c0.1,1.3,0.1,2.6,0.1,4c0,0.4-0.3,0.6-0.6,0.6
						c-3.8,0-7.6,0-11.5,0c-0.3,0-0.5-0.3-0.5-0.6c0-1.3,0-2.7-0.1-4C204.8,171.4,205,171.1,205.3,171.1z"/>
					<path fill="#353A43" d="M205.4,177.5c3.8,0,7.6,0,11.4,0c0.3,0,0.5,0.3,0.5,0.6c-0.1,1.3-0.4,2.7-0.6,4
						c-0.1,0.4-0.4,0.6-0.7,0.6c-3.8,0-7.6,0-11.4,0c-0.3,0-0.5-0.3-0.4-0.6c0.3-1.3,0.5-2.7,0.6-4
						C204.8,177.8,205.1,177.5,205.4,177.5z"/>
					<path fill="#353A43" d="M204.3,183.9c3.8,0,7.6,0,11.4,0c0.3,0,0.4,0.3,0.3,0.6c-0.4,1.3-0.8,2.6-1.3,3.9
						c-0.1,0.3-0.5,0.6-0.8,0.6c-3.8,0-7.5,0-11.3,0c-0.3,0-0.4-0.3-0.3-0.6c0.5-1.3,0.9-2.6,1.2-3.9
						C203.7,184.2,204,183.9,204.3,183.9z"/>
					<path fill="#353A43" d="M202.2,190.2c3.8,0,7.5,0,11.3,0c0.3,0,0.4,0.3,0.2,0.6c-0.6,1.3-1.2,2.5-1.9,3.7
						c-0.2,0.3-0.6,0.6-0.8,0.6c-3.7,0-7.5,0-11.2,0c-0.3,0-0.4-0.3-0.2-0.6c0.7-1.2,1.3-2.5,1.8-3.7
						C201.6,190.5,201.9,190.2,202.2,190.2z"/>
					<path fill="#353A43" d="M199.2,196.2c3.7,0,7.5,0,11.2,0c0.3,0,0.4,0.3,0.1,0.6c-0.8,1.2-1.6,2.3-2.4,3.4
						c-0.2,0.3-0.6,0.5-0.9,0.5c-3.7,0-7.4,0-11.2,0c-0.3,0-0.3-0.2-0.1-0.5c0.9-1.1,1.6-2.3,2.4-3.4
						C198.5,196.4,198.9,196.2,199.2,196.2z"/>
					<path fill="#353A43" d="M198.9,162.4c0.7,0,1.4,0,2.2,0c0.5,0,1.2,0.4,1.4,1c0.9,2.1,1.5,4.4,1.8,6.8c0.1,0.6-0.3,1-0.8,1
						c-0.7,0-1.4,0-2.1,0c-0.5,0-1-0.5-1.1-1c-0.3-2.4-1-4.6-1.8-6.8C198.1,162.8,198.4,162.4,198.9,162.4z"/>
					<path fill="#353A43" d="M201.3,171.5c0.7,0,1.4,0,2.1,0c0.5,0,1,0.5,1,1c0.2,2.3,0.1,4.7-0.3,7.2c-0.1,0.6-0.6,1.1-1.1,1.1
						c-0.7,0-1.4,0-2.1,0c-0.5,0-0.9-0.5-0.8-1.1c0.3-2.4,0.4-4.8,0.2-7.2C200.4,172,200.8,171.5,201.3,171.5z"/>
					<path fill="#353A43" d="M200.9,181.2c0.7,0,1.4,0,2.1,0c0.5,0,0.9,0.5,0.7,1.1c-0.5,2.4-1.2,4.7-2.1,7c-0.2,0.6-0.8,1-1.3,1
						c-0.7,0-1.4,0-2.1,0c-0.5,0-0.7-0.5-0.5-1c0.9-2.3,1.6-4.7,2.1-7C199.9,181.7,200.4,181.2,200.9,181.2z"/>
					<path fill="#353A43" d="M198.1,190.7c0.7,0,1.4,0,2.1,0c0.5,0,0.7,0.5,0.5,1c-1,2.2-2.3,4.4-3.7,6.5c-0.3,0.5-1,0.9-1.6,0.9
						c-0.7,0-1.4,0-2.1,0c-0.5,0-0.6-0.4-0.3-0.9c1.4-2.1,2.6-4.3,3.6-6.5C197,191.2,197.6,190.7,198.1,190.7z"/>
					<path fill="#353A43" d="M191.2,200.7c0.1-0.1,0.2-0.3,0.3-0.4c0.4-0.5,1.1-0.9,1.6-0.9c0.7,0,1.4,0,2.1,0
						c0.5,0,0.6,0.4,0.3,0.9c-0.1,0.1-0.2,0.3-0.3,0.4C193.9,200.7,192.6,200.7,191.2,200.7z"/>
				</g>
				<path fill="#282820" d="M184.9,173.6h-57.7v10.8c0,0,16-2.5,19-5.1s28.3,5.5,28.3,5.5S184.3,183.9,184.9,173.6z"/>
				<polygon fill="#434337" points="127.2,173.6 127.2,171.7 175,171.7 184.9,173.6 				"/>
				<rect x="145.9" y="176.1" fill="#575A49" width="7.3" height="5.5"/>
			</g>
		</g>
		<polygon fill="#7E964B" points="77.2,166.2 29.7,166.2 35,145.6 74.2,145.6 		"/>
		<polygon fill="#678338" points="35,145.6 79.7,128.3 99.7,128.3 74.2,145.6 		"/>
		<path fill="#3B5326" d="M99.7,128.3c0,0-22.6,20.8-22.4,37.9l-3-20.6L99.7,128.3z"/>
		<polygon fill="#7E964B" points="178.8,166.2 226.3,166.2 221,145.6 181.8,145.6 		"/>
		<polygon fill="#678338" points="221,145.6 176.3,128.3 156.3,128.3 181.8,145.6 		"/>
		<path fill="#3B5326" d="M156.3,128.3c0,0,22.6,20.8,22.4,37.9l3-20.6L156.3,128.3z"/>
		<path fill="#607B36" d="M102.3,95.1c-0.6,0.1-1.3,0.2-1.9,0.4c-11.9,9.3-17.9,21.1-15.2,36.6h11.6
			C95.6,115.9,99.8,101.7,102.3,95.1z"/>
		<path fill="#3F5728" d="M153.7,95.1c-17.5-3.3-33.9-3.3-51.5,0c-2.4,6.6-6.7,20.9-5.5,37h62.4C160.4,115.9,156.2,101.7,153.7,95.1
			z"/>
		<path fill="#607B36" d="M155.6,95.4c-0.6-0.1-1.3-0.3-1.9-0.4c2.4,6.6,6.7,20.9,5.5,37h11.6C173.5,116.6,167.5,104.7,155.6,95.4z"
			/>
		<g>
			<path fill="#3F5728" d="M133.1,120.7c-1.2,5.6-9.1,5.6-10.3,0c-0.2-10.7-0.5-22.5-0.8-35.4c3.9,0,7.9,0,11.8,0
				C133.6,98.2,133.4,110,133.1,120.7z"/>
			<path fill="#364920" d="M135,102.2c-1.6,8.1-12.3,8.1-13.9,0c-0.2-6.2-0.3-12.8-0.5-19.6c5,0,10,0,15,0
				C135.3,89.5,135.1,96,135,102.2z"/>
			<path fill="#708B3B" d="M135.5,82.6c-0.1,4.8-3.5,8.6-7.5,8.6c-4,0-7.4-3.8-7.5-8.6c-0.1-5,3.2-9.1,7.5-9.1
				C132.3,73.5,135.6,77.6,135.5,82.6z"/>
			<path fill="#536D31" d="M133.9,83.1c-1.4,7.5-10.5,7.5-11.9,0c-0.3-14.5-0.7-30.6-1-48.6c4.7,0,9.3,0,14,0
				C134.6,52.5,134.3,68.6,133.9,83.1z"/>
			<path fill="#708B3B" d="M135,34.2c-0.1,4.1-3.3,7.3-7,7.3c-3.8,0-6.9-3.2-7-7.3c-0.1-4.2,3-7.7,7-7.7C132,26.5,135.1,30,135,34.2
				z"/>
			<path fill="#0A0B0D" d="M133.3,33.7c-0.1,3.1-2.4,5.5-5.3,5.5c-2.8,0-5.2-2.4-5.3-5.5c-0.1-3.2,2.3-5.8,5.3-5.8
				C131,28,133.3,30.6,133.3,33.7z"/>
		</g>
	</g>
</g>
</svg>
