<?xml version="1.0" encoding="utf-8"?>
<!-- Generator: Adobe Illustrator 18.0.0, SVG Export Plug-In . SVG Version: 6.00 Build 0)  -->
<!DOCTYPE svg PUBLIC "-//W3C//DTD SVG 1.1//EN" "http://www.w3.org/Graphics/SVG/1.1/DTD/svg11.dtd">
<svg version="1.1" id="Layer_1" xmlns="http://www.w3.org/2000/svg" xmlns:xlink="http://www.w3.org/1999/xlink" x="0px" y="0px"
	 viewBox="0 0 256 256" enable-background="new 0 0 256 256" xml:space="preserve">
<g>
	<circle fill="#F89F6A" cx="128" cy="128" r="127"/>
	<g>
		<ellipse fill="#0B2C48" cx="129" cy="198.1" rx="23.7" ry="5.1"/>
		<rect x="125.8" y="175.3" fill="#36505F" width="6.3" height="22.8"/>
		<g>
			<path fill="#27A4D5" d="M120.3,64.4c2.1,1.5,5.4,0.9,6.9,3c1.5,2.1,0.1,5.9,2.4,7.2c0.9,0.5,2,0.3,2.9,0.6
				c0.9,0.3,1.6,1.8,0.7,2.3c1.8-0.6,3.6-1.3,5.4-1.2c1.9,0.1,3.8,1.1,4.4,2.9c0.7,2.1-0.8,4.4-2.8,5.4c-2,0.9-4.3,0.8-6.5,0.4
				c-1.8-0.3-3.8-0.8-5.5,0c-1.4,0.7-2.3,2.2-2.9,3.7c-1.1,3-1.1,6.5,0,9.5c0.7,1.8,2.8,3.7,4.3,2.5c0.1-0.7-0.1-1.5-0.7-2
				c3.7,0,7.4,0.3,11.1,0.8c-0.2,2,0.9,4.1,2.6,5.3c0.6,0.4,1.3,0.7,1.5,1.3c0.4,1-0.7,2-0.8,3c-0.3,2.1,2.9,3.8,2.2,5.8
				c-0.4,1.2-2.1,1.9-2,3.2c0.1,0.8,0.8,1.3,1.2,2c1.2,2-0.9,4.4-1.5,6.6c-0.8,3,1.5,6.5,4.6,6.9c1.2,0.1,2.4-0.1,3.5,0.3
				c1.9,0.6,3.2,2.7,5.2,2.7c2,0,3.2-2.1,4-3.9c2.4-5.5,4.6-11.6,9.8-14.6c-1.4,0-1.9-2-1.1-3.1c0.7-1.1,2.1-1.7,3.2-2.5
				c3.6-2.5,4.7-7.3,5.9-11.5c0.3-1,0.9-2.2,1.7-2.8c-5.2-16.8-18.5-30.8-36.7-35.9c-8.5-2.4-17.1-2.6-25.1-0.9
				C118.8,62.6,119.3,63.7,120.3,64.4z"/>
			<path fill="#27A4D5" d="M117,161.3c1.1-2.3,2.2-4.6,3.4-6.9c1-2,2-4.2,1.5-6.3c4.3,0.3,7-4.6,7.9-8.8c0.5-2.3,0.8-4.8,0.2-7.1
				c-0.6-2.3-2.2-4.5-4.4-5.2c-0.1,1-0.8,2-1.6,2.6c-2.8-5.5-5.5-11-8.3-16.5c-0.7-1.4-1.5-2.9-3-3.5c-1.9-0.8-4.6,0.1-5.7-1.6
				c-0.4-0.7-0.4-1.6-0.6-2.4c-0.5-2.1-2.8-3.7-5-3.3c-0.3,1.7-1.8,3-3.5,3.1c-0.7,0-1.4-0.1-2.1-0.1c-2.3,0-4.5,1.8-5,4.1
				c-2.4,0.3-4.2-3.2-2.5-4.9c-0.8-0.6-1.6-1.1-2.4-1.7c0.7-1.2,1.3-2.4,2-3.6c-1.7-1.7-5.2-0.7-6.4-2.7C81,95.8,81,95,80.9,94.3
				c0-1.3,0-2.7,0.1-4c-1.4,2.9-2.6,6-3.5,9.2c-8,28.5,8.6,58,37.1,65.9c0.2,0.1,0.5,0.1,0.7,0.2C115.6,164.2,116.3,162.7,117,161.3
				z"/>
			<path fill="#F7F8F9" d="M180.1,98.3c-0.8,0.6-1.4,1.8-1.7,2.8c-1.2,4.3-2.2,9-5.9,11.5c-1.1,0.8-2.5,1.3-3.2,2.5
				c-0.7,1.1-0.2,3.1,1.1,3.1c-5.2,2.9-7.4,9.1-9.8,14.6c-0.8,1.8-2,3.9-4,3.9c-2,0-3.3-2.1-5.2-2.7c-1.1-0.3-2.3-0.1-3.5-0.3
				c-3.1-0.4-5.4-3.9-4.6-6.9c0.6-2.3,2.6-4.6,1.5-6.6c-0.4-0.7-1.1-1.2-1.2-2c-0.1-1.3,1.6-2,2-3.2c0.7-2-2.5-3.7-2.2-5.8
				c0.2-1.1,1.2-2,0.8-3c-0.2-0.6-0.9-1-1.5-1.3c-1.7-1.1-2.8-3.2-2.6-5.3c-3.7-0.5-7.4-0.8-11.1-0.8c0.6,0.5,0.9,1.2,0.7,2
				c-1.5,1.2-3.6-0.6-4.3-2.5c-1.1-3-1.1-6.4,0-9.5c0.5-1.5,1.4-3,2.9-3.7c1.7-0.8,3.7-0.4,5.5,0c2.2,0.4,4.5,0.5,6.5-0.4
				c2-0.9,3.5-3.3,2.8-5.4c-0.6-1.8-2.5-2.8-4.4-2.9c-1.9-0.1-3.7,0.5-5.4,1.2c0.9-0.5,0.2-1.9-0.7-2.3c-0.9-0.3-2-0.2-2.9-0.6
				c-2.3-1.2-0.9-5-2.4-7.2c-1.5-2.1-4.9-1.5-6.9-3c-1-0.7-1.5-1.8-2-2.9C102.4,64.8,88.4,75.2,81,90.3c-0.1,1.3-0.1,2.7-0.1,4
				c0,0.8,0.1,1.6,0.5,2.2c1.3,2,4.8,1,6.4,2.7c-0.7,1.2-1.3,2.4-2,3.6c0.8,0.6,1.6,1.1,2.4,1.7c-1.6,1.8,0.1,5.2,2.5,4.9
				c0.5-2.3,2.7-4.1,5-4.1c0.7,0,1.4,0.1,2.1,0.1c1.7-0.1,3.2-1.5,3.5-3.1c2.2-0.4,4.5,1.2,5,3.3c0.2,0.8,0.1,1.7,0.6,2.4
				c1.1,1.7,3.8,0.9,5.7,1.6c1.5,0.6,2.3,2.1,3,3.5c2.8,5.5,5.5,11,8.3,16.5c0.9-0.6,1.5-1.5,1.6-2.6c2.3,0.7,3.9,2.9,4.4,5.2
				c0.6,2.3,0.3,4.7-0.2,7.1c-0.9,4.2-3.6,9-7.9,8.8c0.5,2.1-0.5,4.3-1.5,6.3c-1.1,2.3-2.2,4.6-3.4,6.9c-0.7,1.4-1.4,2.8-1.8,4.3
				c3.9,1,7.8,1.6,11.7,1.8c-1.8-2.3-3.6-4.6-5.3-6.8c2.5-0.5,3.5-3.4,4.1-5.9c0.9-3.5,1.9-6.9,3.2-10.2c0.5-1.2,1-2.5,2-3.4
				c2-1.8,5-1.3,7.7-0.7c1.4-3.1,1.7-6.7,0.8-9.9c2.5,0.5,2.9,4.1,4.9,5.8c1.2,1,2.8,1.2,4.2,1.4c4.6,0.8,9.1,2.8,12.8,5.6
				c1.2-1.6,1.1-4.1-0.2-5.7c3.8-0.6,6.6,3.4,8.4,6.8c0.5,0.9,1,1.8,1.7,2.6c4.2-5.3,7.4-11.6,9.3-18.5
				C183.4,118.1,183,107.8,180.1,98.3z"/>
			<path fill="#27A4D5" d="M169.5,144.3c-1.8-3.4-4.6-7.3-8.4-6.8c1.3,1.6,1.4,4,0.2,5.7c-3.8-2.8-8.2-4.8-12.8-5.6
				c-1.5-0.3-3.1-0.5-4.2-1.4c-2-1.7-2.3-5.3-4.9-5.8c1,3.3,0.7,6.9-0.8,9.9c-2.6-0.6-5.6-1-7.7,0.7c-1,0.9-1.5,2.2-2,3.4
				c-1.3,3.3-2.3,6.7-3.2,10.2c-0.6,2.5-1.6,5.4-4.1,5.9c1.8,2.3,3.6,4.6,5.3,6.8c17.3,0.7,33.8-7.1,44.2-20.5
				C170.5,146.1,169.9,145.2,169.5,144.3z"/>
		</g>
		<path fill="#2C424F" d="M129,177.4c-5.6,0-11.4-0.8-17.1-2.4l1.1-4.1c15.2,4.3,31.2,2.3,45-5.4c13.8-7.8,23.7-20.4,28-35.7
			c8.8-31.5-9.6-64.2-41.1-73l1.1-4.1c33.7,9.4,53.4,44.5,44,78.2C182.2,159,156.7,177.4,129,177.4z"/>
	</g>
</g>
</svg>
