<?xml version="1.0" encoding="utf-8"?>
<!-- Generator: Adobe Illustrator 18.0.0, SVG Export Plug-In . SVG Version: 6.00 Build 0)  -->
<!DOCTYPE svg PUBLIC "-//W3C//DTD SVG 1.1//EN" "http://www.w3.org/Graphics/SVG/1.1/DTD/svg11.dtd">
<svg version="1.1" id="Layer_1" xmlns="http://www.w3.org/2000/svg" xmlns:xlink="http://www.w3.org/1999/xlink" x="0px" y="0px"
	 viewBox="0 0 256 256" enable-background="new 0 0 256 256" xml:space="preserve">
<g>
	<circle fill="#D5E0E1" cx="128" cy="128" r="127"/>
	<g>
		<path fill="#527F99" d="M105.1,67.1c6.4,6.4,7.8,17.3,3.2,25.1c-3.9,6.7-11.1,10.7-15.8,16.8c-2.1,2.8-3.6,6-5.1,9.1
			c-3,6.3-6,12.6-8.6,19.1c-5.2,13.2-8.5,27.1-9.7,41.2c-0.4,5,0.8,10.2,3.8,14.2c7.4,9.9,18.2,5.1,28,5.7c4.3,0.3,8.4,1.6,12.6,2.5
			c7.4,1.5,14.9,1.5,22.4,1.3c15.7-0.3,31.6-1.1,46.7-5.4c1.2-0.3,2.4-0.7,3.2-1.6c1.2-1.3,1.2-3.4,1-5.2c-0.8-9-2.3-18-3.8-27
			c-2-12.2-4.1-24.4-8.3-36c-4.8-13.2-12.6-25.6-24.5-33.2c-2.5-1.6-4.6-3.8-6-6.5c-4.8-9.8,5.4-15.5,8.9-23.5
			c0.5-1.2,0.9-2.7,0.1-3.7c-0.9-1.3-2.8-1.1-4.4-0.9l-21,3.6c-1.4-3.6-1.2-2.9-2.6-6.4l0,0c1-0.7,0.5-2.2-0.7-2.1
			c-5.8,0.1-11.6,0.7-17.3,1.7c-2.7,0.5-5,2.5-5.5,5.2C101.4,63.9,103.5,65.4,105.1,67.1z"/>
		<circle fill="#EDF0F2" cx="129" cy="147.3" r="27.5"/>
		<g>
			<path fill="#E65336" d="M127.4,167.4v-5c-2.8-0.1-5.8-0.9-7.5-2.2l1.2-3.3c1.8,1.2,4.3,2.1,7.1,2.1c3.5,0,5.8-2,5.8-4.8
				c0-2.7-1.9-4.4-5.5-5.8c-5-2-8.1-4.2-8.1-8.5c0-4.1,2.9-7.2,7.4-7.9v-5h3v4.8c2.9,0.1,5,0.9,6.4,1.7l-1.2,3.2
				c-1-0.6-3-1.7-6.2-1.7c-3.8,0-5.2,2.3-5.2,4.2c0,2.5,1.8,3.8,6.1,5.6c5.1,2.1,7.6,4.6,7.6,9c0,3.9-2.7,7.5-7.7,8.3v5.1H127.4z"/>
		</g>
		<path fill="#527F99" d="M128.7,54.4c-1.7-0.4-3.5-0.5-5.3-0.6c-2.4,0-4.8,0.1-7.2,0.3c-1.6,0.2-3.2,0.4-4.6,1.2
			c-1.4,0.8-2.5,2.1-2.6,3.7c0,2.2,1.9,3.8,3.9,4.9c5.5,2.9,12,3.4,18.2,3.3c2.1,0,4.1-0.1,6.2-0.5c1.3-0.3,2.6-0.8,3.8-1.3
			c1.2-0.5,2.4-0.9,3.6-1.4c-1.6-0.1-3.3-0.3-4.9-0.4c-1.7-0.1-3.4-0.3-4.8-1.2c2.1-0.2,4.3-0.3,6.4-0.4c0-0.4,0.2-0.8,0.6-1.1
			c-2.9,0.2-5.9,0.4-8.8,0.7c-1.3,0.1-2.8,0.1-3.7-0.8c-0.6-0.6-0.8-1.6-0.7-2.5c0.1-0.9,0.4-1.7,0.7-2.6c0.1-0.2,0.1-0.4,0.1-0.6
			C129.5,54.7,129.1,54.5,128.7,54.4z"/>
		<path fill="#EDF0F2" d="M123.6,90.4c-1.6,0-3.1,0-4.7-0.1c-0.9,0-1.9-0.1-2.9-0.3c-2.2-0.5-4.2-1.6-5.7-3.3
			c-0.8-0.9-1.2-1.7-1.3-2.6c-0.1-1.1,0.4-2.4,1.6-2.9l0.6,1.5c-0.4,0.1-0.6,0.7-0.5,1.2c0.1,0.5,0.4,1.1,0.9,1.7
			c1.3,1.4,3,2.4,4.9,2.8c0.9,0.2,1.8,0.2,2.6,0.3c6.2,0.3,12.5,0,18.7-0.9c1.3-0.2,2.8-0.4,4.1-0.9c0.8-0.3,1.4-0.6,1.8-1
			c0.4-0.5,0.6-1,0.5-1.5c-0.1-0.4-0.5-0.8-0.9-0.7l-0.2-1.6c1.2-0.1,2.4,0.8,2.6,2c0.2,1-0.1,2.1-0.9,3c-0.7,0.8-1.7,1.2-2.4,1.5
			c-1.5,0.5-3.1,0.8-4.4,1C133.2,90,128.4,90.4,123.6,90.4z"/>
		<path fill="#EDF0F2" d="M118.7,114.4l-1.5-0.7c1.2-2.7,2.1-5.6,3-8.4c0.5-1.6,1-3.3,1.1-5c0.2-2-0.2-4.1-1.1-5.9
			c-0.1-0.3-0.3-0.5-0.4-0.8c-0.2-0.4-0.4-0.8-0.6-1.2c0,0,0,0,0,0c-0.2-0.2-0.3-0.4-0.4-0.7c-0.2,0-0.4-0.1-0.5-0.2
			c-0.4-0.2-0.7-0.7-0.7-1.2c0-0.3,0-0.6,0.2-0.8c-0.3-0.6-0.2-1.4,0.2-2c0.6-0.8,1.7-1,2.5-0.4c0.3,0.2,0.5,0.4,0.6,0.7
			c0.2,0,0.4,0,0.6,0c0.6-0.4,1.4-0.6,2-0.4l0.4,0.1l0.2,0.3c0.3,0.5,0.3,1.2,0.2,1.7c0.2,0.3,0.3,0.7,0.3,1.1c0,0.5-0.3,1-0.7,1.4
			c-0.4,0.4-1,0.6-1.6,0.5c-0.8-0.1-1.5-0.7-1.8-1.4c0,0-0.1,0.1-0.1,0.1c0,0.1,0.1,0.3,0.1,0.4c0.5,0.6,1.2,1,1.9,1.3
			c1,0.5,2.1,0.9,3.2,1.3c0.8,0.3,1.6,0.6,2.4,0.9c2.1,0.9,4.1,2,6,3.1c1.5,0.9,3,1.7,4.3,2.9c1.1,1,2,2.1,2.8,3.2l2,2.5l-1.3,1
			l-1.9-2.5c-0.8-1.1-1.7-2.1-2.7-3c-1.2-1.1-2.6-1.9-4-2.7c-1.9-1.1-3.8-2.2-5.8-3c-0.8-0.3-1.5-0.6-2.3-0.9
			c-1.1-0.4-2.2-0.8-3.2-1.2c0.7,1.9,1.1,3.9,0.9,5.9c-0.1,1.8-0.7,3.6-1.2,5.3C120.9,108.6,120,111.6,118.7,114.4z"/>
	</g>
</g>
</svg>
